<?xml version="1.0" encoding="utf-8"?>
<!-- Generator: Adobe Illustrator 21.1.0, SVG Export Plug-In . SVG Version: 6.00 Build 0)  -->
<svg version="1.1" id="Layer_1" xmlns="http://www.w3.org/2000/svg" xmlns:xlink="http://www.w3.org/1999/xlink" x="0px" y="0px"
	 viewBox="0 0 100 100" style="enable-background:new 0 0 100 100;" xml:space="preserve">
<style type="text/css">
	.st0{fill:#FFFFFF;}
</style>
<g>
	<g>
		<path class="st0" d="M42.1,36.2c1-4,2-8.1,3-12.1c1.6-6.5,3.2-12.9,4.8-19.4c0.4-1.5,0.7-3,1.1-4.5c-0.2,0-0.3,0-0.5,0
			c1.3,6,2.6,12.1,3.9,18.1c0.9,4.1,1.8,8.2,2.6,12.4c0.3,1.3,0.6,2.6,0.9,4c0.1,0.4,0.2,0.7,0.2,1.1c0,0.1,0,0.2,0.1,0.3
			c0.1,0.2-0.1-0.1,0.1-0.2c-0.1,0-0.4,0.3-0.5,0.4c-0.3,0.3-0.7,0.6-1,0.8c-0.9,0.8-1.9,1.5-2.8,2.3c-1.3,1.1-2.7,2.2-4,3.3
			c0.1,0,0.2,0,0.4,0c-2.8-2.3-5.5-4.5-8.3-6.8c-0.3-0.2-0.6,0.2-0.4,0.4c2.8,2.3,5.5,4.5,8.3,6.8c0.1,0.1,0.2,0.1,0.4,0
			c2.8-2.3,5.5-4.5,8.3-6.8c0.1-0.1,0.1-0.2,0.1-0.3C57.8,32,57,28,56.1,23.9c-1.4-6.4-2.7-12.9-4.1-19.3c-0.3-1.5-0.6-3-1-4.4
			c-0.1-0.3-0.4-0.2-0.5,0c-1,4-2,8.1-3,12.1c-1.6,6.5-3.2,12.9-4.8,19.4c-0.4,1.5-0.7,3-1.1,4.5C41.5,36.4,42,36.6,42.1,36.2z"/>
		<path class="st0" d="M56.6,50c2.3,2.8,4.5,5.5,6.8,8.3c0.1,0.1,0.2,0.1,0.3,0.1c4.1-0.9,8.1-1.7,12.2-2.6
			c6.4-1.4,12.9-2.7,19.3-4.1c1.5-0.3,3-0.6,4.4-1c0.3-0.1,0.2-0.4,0-0.5c-4-1-8.1-2-12.1-3C80.9,45.6,74.5,44,68,42.4
			c-1.5-0.4-3-0.7-4.5-1.1c-0.1,0-0.2,0-0.3,0.1c-2.3,2.8-4.5,5.5-6.8,8.3c-0.2,0.3,0.2,0.6,0.4,0.4c2.1-2.6,4.3-5.3,6.4-7.9
			c0.1-0.1,0.3-0.3,0.3-0.4c-0.1,0.3-0.3-0.1-0.2,0.1c0.1,0.1,0.6,0.2,0.8,0.2c1.2,0.3,2.3,0.6,3.5,0.9c8.2,2,16.4,4.1,24.6,6.1
			c2.3,0.6,4.7,1.2,7,1.7c0-0.2,0-0.3,0-0.5c-6,1.3-12.1,2.6-18.1,3.9c-4.1,0.9-8.2,1.8-12.4,2.6c-1.3,0.3-2.6,0.6-4,0.9
			c-0.4,0.1-0.7,0.2-1.1,0.2c-0.1,0-0.2,0-0.3,0.1c-0.2,0.1,0.1-0.1,0.2,0.1c0-0.1-0.3-0.4-0.4-0.5c-0.3-0.3-0.6-0.7-0.8-1
			c-0.8-0.9-1.5-1.9-2.3-2.8c-1.1-1.3-2.2-2.7-3.3-4C56.7,49.4,56.4,49.8,56.6,50z"/>
		<path class="st0" d="M50,56.9c-2.8,2.3-5.5,4.5-8.3,6.8c-0.1,0.1-0.1,0.2-0.1,0.3c0.9,4.1,1.7,8.1,2.6,12.2
			c1.4,6.4,2.7,12.9,4.1,19.3c0.3,1.5,0.6,3,1,4.4c0.1,0.3,0.4,0.2,0.5,0c1-4,2-8.1,3-12.1c1.6-6.5,3.2-12.9,4.8-19.4
			c0.4-1.5,0.7-3,1.1-4.5c0-0.1,0-0.2-0.1-0.3c-2.8-2.3-5.5-4.5-8.3-6.8c-0.3-0.2-0.6,0.2-0.4,0.4c2.6,2.1,5.3,4.3,7.9,6.4
			c0.1,0.1,0.3,0.3,0.4,0.3c-0.3-0.1,0.1-0.3-0.1-0.2c-0.1,0.1-0.2,0.6-0.2,0.8c-0.3,1.2-0.6,2.3-0.9,3.5c-2,8.2-4.1,16.4-6.1,24.6
			c-0.6,2.3-1.2,4.7-1.7,7c0.2,0,0.3,0,0.5,0c-1.3-6-2.6-12.1-3.9-18.1c-0.9-4.1-1.8-8.2-2.6-12.4c-0.3-1.3-0.6-2.6-0.9-4
			c-0.1-0.4-0.2-0.7-0.2-1.1c0-0.1,0-0.2-0.1-0.3c-0.1-0.2,0.1,0.1-0.1,0.2c0.1,0,0.4-0.3,0.5-0.4c0.3-0.3,0.7-0.6,1-0.8
			c0.9-0.8,1.9-1.5,2.8-2.3c1.3-1.1,2.7-2.2,4-3.3C50.6,57,50.2,56.7,50,56.9z"/>
		<path class="st0" d="M43.4,49.7c-2.2-2.8-4.3-5.5-6.5-8.3c-0.1-0.1-0.2-0.1-0.3-0.1c-4,0.9-8,1.7-12,2.6c-6.3,1.4-12.6,2.7-19,4.1
			c-1.5,0.3-2.9,0.6-4.4,1c-0.3,0.1-0.2,0.4,0,0.5c4,1,8,2,12.1,3c6.4,1.6,12.8,3.2,19.2,4.8c1.5,0.4,2.9,0.7,4.4,1.1
			c0.1,0,0.2,0,0.3-0.1c2-2.8,4.1-5.5,6.1-8.3c0.2-0.3-0.3-0.5-0.4-0.3c-2,2.8-4.1,5.5-6.1,8.3c0.1,0,0.2-0.1,0.3-0.1
			c-4-1-8-2-12.1-3c-6.4-1.6-12.8-3.2-19.2-4.8C4.4,49.7,3,49.3,1.5,49c0,0.2,0,0.3,0,0.5c6-1.3,11.9-2.6,17.9-3.9
			c4-0.9,8-1.7,12-2.6c1.3-0.3,2.6-0.6,4-0.9c0.4-0.1,0.7-0.1,1.1-0.2c0.1,0,0.2,0,0.2-0.1c0.2-0.1-0.1,0-0.2-0.1
			c0,0.2,0.3,0.4,0.4,0.5c0.3,0.3,0.5,0.7,0.8,1c0.7,0.9,1.5,1.9,2.2,2.8c1,1.3,2,2.6,3.1,3.9C43.2,50.3,43.6,49.9,43.4,49.7z"/>
		<path class="st0" d="M50,50.2c1.6,0,3.3,0,4.9,0c0.6,0,1.7,0.3,2.2-0.3c1.5-1.7,2.9-3.6,4.3-5.4c5.1-6.4,10.2-12.8,15.3-19.2
			c1.3-1.7,2.6-3.3,4-5c0.2-0.2-0.1-0.6-0.3-0.4c-4.6,3.4-9.2,6.9-13.8,10.3c-5.4,4-10.8,8.1-16.2,12.1c-0.1,0.1-0.3,0.2-0.4,0.3
			c-0.3,0.4-0.1,1.3-0.1,1.7c0,1.9,0,3.7,0,5.6c0,0.3,0.5,0.3,0.5,0c0-1.6,0-3.2,0-4.8c0-0.4,0-0.8,0-1.3c0-0.2,0.1-0.7,0-0.9
			c-0.1-0.2-0.1,0.1-0.1,0.1c0.1,0,0.1-0.1,0.2-0.1c0.7-0.4,1.3-1,2-1.5c1.2-0.9,2.4-1.8,3.6-2.7c6.5-4.9,13-9.7,19.5-14.6
			c1.7-1.3,3.4-2.6,5.1-3.8c-0.1-0.1-0.2-0.3-0.3-0.4c-3.5,4.4-6.9,8.7-10.4,13.1c-4.3,5.4-8.5,10.8-12.8,16.2
			c-0.2,0.2-0.3,0.4-0.4,0.5c0.1-0.1,0.2,0,0-0.1c-0.3-0.1-0.8,0-1.1,0c-1.8,0-3.6,0-5.5,0C49.7,49.7,49.7,50.2,50,50.2z"/>
		<path class="st0" d="M50.1,50.1c0,1.6,0,3.3,0,4.9c0,0.6-0.3,1.7,0.3,2.2c1.7,1.5,3.6,2.9,5.4,4.3c6.4,5.1,12.8,10.2,19.2,15.3
			c1.7,1.3,3.3,2.6,5,4c0.2,0.2,0.6-0.1,0.4-0.3c-3.4-4.6-6.9-9.2-10.3-13.8c-4-5.4-8.1-10.8-12.1-16.2c-0.1-0.1-0.2-0.3-0.3-0.4
			c-0.4-0.3-1.3-0.1-1.7-0.1c-1.9,0-3.7,0-5.6,0c-0.3,0-0.3,0.5,0,0.5c1.6,0,3.2,0,4.8,0c0.4,0,0.8,0,1.3,0c0.2,0,0.7,0.1,0.9,0
			c0.2-0.1-0.1-0.1-0.1-0.1c0,0.1,0.1,0.1,0.1,0.2c0.4,0.7,1,1.3,1.5,2c0.9,1.2,1.8,2.4,2.7,3.6c4.9,6.5,9.7,13,14.6,19.5
			c1.3,1.7,2.6,3.4,3.8,5.1c0.1-0.1,0.3-0.2,0.4-0.3c-4.4-3.5-8.7-6.9-13.1-10.4c-5.4-4.3-10.8-8.5-16.2-12.8
			c-0.2-0.2-0.4-0.3-0.5-0.4c0.1,0.1,0,0.2,0.1,0c0.1-0.3,0-0.8,0-1.1c0-1.8,0-3.6,0-5.5C50.6,49.8,50.1,49.8,50.1,50.1z"/>
		<path class="st0" d="M50.3,50.2c-1.6,0-3.3,0-4.9,0c-0.6,0-1.7-0.3-2.2,0.3c-1.5,1.7-2.9,3.6-4.3,5.4C33.9,62.2,28.8,68.6,23.7,75
			c-1.3,1.7-2.6,3.3-4,5c-0.2,0.2,0.1,0.6,0.3,0.4c4.6-3.4,9.2-6.9,13.8-10.3c5.4-4,10.8-8.1,16.2-12.1c0.1-0.1,0.3-0.2,0.4-0.3
			c0.3-0.4,0.1-1.3,0.1-1.7c0-1.9,0-3.7,0-5.6c0-0.3-0.5-0.3-0.5,0c0,1.6,0,3.2,0,4.8c0,0.4,0,0.8,0,1.3c0,0.2-0.1,0.7,0,0.9
			c0.1,0.2,0.1-0.1,0.1-0.1c-0.1,0-0.1,0.1-0.2,0.1c-0.7,0.4-1.3,1-2,1.5c-1.2,0.9-2.4,1.8-3.6,2.7c-6.5,4.9-13,9.7-19.5,14.6
			c-1.7,1.3-3.4,2.6-5.1,3.8c0.1,0.1,0.2,0.3,0.3,0.4c3.5-4.4,6.9-8.7,10.4-13.1c4.3-5.4,8.5-10.8,12.8-16.2
			c0.2-0.2,0.3-0.4,0.4-0.5c-0.1,0.1-0.2,0,0,0.1c0.3,0.1,0.8,0,1.1,0c1.8,0,3.6,0,5.5,0C50.6,50.7,50.6,50.2,50.3,50.2z"/>
		<path class="st0" d="M50.2,49.6c0-1.6,0-3.3,0-4.9c0-0.6,0.3-1.7-0.3-2.2c-1.7-1.5-3.6-2.9-5.4-4.3C38.2,33.1,31.8,28,25.4,23
			c-1.7-1.3-3.3-2.6-5-4c-0.2-0.2-0.6,0.1-0.4,0.3c3.4,4.6,6.9,9.2,10.3,13.8c4,5.4,8.1,10.8,12.1,16.2c0.1,0.1,0.2,0.3,0.3,0.4
			c0.4,0.3,1.3,0.1,1.7,0.1c1.9,0,3.7,0,5.6,0c0.3,0,0.3-0.5,0-0.5c-1.6,0-3.2,0-4.8,0c-0.4,0-0.8,0-1.3,0c-0.2,0-0.7-0.1-0.9,0
			c-0.2,0.1,0.1,0.1,0.1,0.1c0-0.1-0.1-0.1-0.1-0.2c-0.4-0.7-1-1.3-1.5-2c-0.9-1.2-1.8-2.4-2.7-3.6c-4.9-6.5-9.7-13-14.6-19.5
			c-1.3-1.7-2.6-3.4-3.8-5.1c-0.1,0.1-0.3,0.2-0.4,0.3c4.4,3.5,8.7,6.9,13.1,10.4c5.4,4.3,10.8,8.5,16.2,12.8
			c0.2,0.2,0.4,0.3,0.5,0.4c-0.1-0.1,0-0.2-0.1,0c-0.1,0.3,0,0.8,0,1.1c0,1.8,0,3.6,0,5.5C49.7,49.9,50.2,49.9,50.2,49.6z"/>
		<path class="st0" d="M50.7,0.5c-0.1,3.3-0.1,6.6-0.2,9.9c-0.1,7.9-0.3,15.8-0.4,23.8c-0.2,9.5-0.3,19-0.4,28.5
			c-0.1,8.3-0.3,16.5-0.4,24.8c-0.1,2.7-0.1,5.5-0.1,8.2c0,1.3-0.2,2.6-0.1,3.9c0,0.1,0,0.1,0,0.2c0,0.3,0.5,0.3,0.5,0
			c0.1-3.3,0.1-6.6,0.2-9.9C50,81.9,50.1,74,50.2,66c0.2-9.5,0.3-19,0.4-28.5c0.1-8.3,0.3-16.5,0.4-24.8c0.1-2.7,0.1-5.5,0.1-8.2
			c0-1.3,0.2-2.6,0.1-3.9c0-0.1,0-0.1,0-0.2C51.2,0.1,50.7,0.1,50.7,0.5L50.7,0.5z"/>
		<path class="st0" d="M98.3,50.5c-3.3-0.1-6.5-0.1-9.8-0.2c-7.8-0.1-15.6-0.3-23.3-0.4c-9.4-0.2-18.8-0.3-28.2-0.4
			c-8.2-0.1-16.3-0.3-24.5-0.4c-2.7,0-5.3-0.1-8-0.1c-1.3,0-2.6-0.2-3.8-0.1c-0.1,0-0.1,0-0.2,0c-0.3,0-0.3,0.5,0,0.5
			c3.3,0.1,6.5,0.1,9.8,0.2c7.8,0.1,15.6,0.3,23.3,0.4c9.4,0.2,18.8,0.3,28.2,0.4c8.2,0.1,16.3,0.3,24.5,0.4c2.7,0,5.3,0.1,8,0.1
			c1.3,0,2.6,0.2,3.8,0.1c0.1,0,0.1,0,0.2,0C98.6,51,98.6,50.5,98.3,50.5L98.3,50.5z"/>
		<path class="st0" d="M80.3,19.8c-1.9,1.9-3.9,3.9-5.8,5.8c-4.6,4.7-9.2,9.3-13.9,13.9C55,45.2,49.4,50.8,43.8,56.4
			C39,61.3,34.1,66.2,29.3,71c-1.6,1.6-3.2,3.2-4.8,4.8c-0.7,0.7-1.6,1.5-2.3,2.3c0,0-0.1,0.1-0.1,0.1c-0.2,0.2,0.1,0.6,0.4,0.4
			c1.9-1.9,3.9-3.9,5.8-5.8c4.6-4.7,9.2-9.3,13.9-13.9c5.6-5.6,11.2-11.3,16.8-16.9c4.8-4.9,9.7-9.7,14.5-14.6
			c1.6-1.6,3.2-3.2,4.8-4.8c0.7-0.7,1.6-1.5,2.3-2.3c0,0,0.1-0.1,0.1-0.1C80.8,19.9,80.5,19.6,80.3,19.8L80.3,19.8z"/>
		<path class="st0" d="M77.6,77.4c-1.9-1.9-3.7-3.8-5.6-5.8c-4.4-4.6-8.9-9.1-13.3-13.7c-5.4-5.6-10.8-11.1-16.2-16.7
			c-4.6-4.8-9.3-9.5-13.9-14.3c-1.5-1.6-3.1-3.2-4.6-4.8c-0.7-0.7-1.4-1.6-2.2-2.2c0,0-0.1-0.1-0.1-0.1c-0.2-0.2-0.6,0.1-0.4,0.4
			c1.9,1.9,3.7,3.8,5.6,5.8c4.4,4.6,8.9,9.1,13.3,13.7c5.4,5.6,10.8,11.1,16.2,16.7c4.6,4.8,9.3,9.5,13.9,14.3
			c1.5,1.6,3.1,3.2,4.6,4.8c0.7,0.7,1.4,1.6,2.2,2.2c0,0,0.1,0.1,0.1,0.1C77.4,78,77.8,77.6,77.6,77.4L77.6,77.4z"/>
	</g>
	<g>
		<g>
			<polygon class="st0" points="50.9,0.5 50,43.1 58.6,36.3 			"/>
			<g>
				<path class="st0" d="M50.7,0.5c-0.1,4.8-0.2,9.6-0.3,14.4c-0.2,7.6-0.3,15.3-0.5,23c0,1.8-0.1,3.5-0.1,5.3
					c0,0.2,0.3,0.3,0.4,0.2c2.9-2.3,5.7-4.5,8.6-6.8c0.1-0.1,0.1-0.2,0.1-0.3c-0.9-4-1.7-8.1-2.6-12.1c-1.4-6.4-2.7-12.8-4.1-19.3
					c-0.3-1.5-0.6-3-1-4.5C51.1,0.1,50.6,0.2,50.7,0.5c1.3,6.2,2.6,12.3,3.9,18.4c0.9,4.1,1.8,8.2,2.6,12.3c0.3,1.3,0.6,2.6,0.9,3.9
					c0.1,0.3,0.1,0.7,0.2,1c0,0.1,0,0.2,0.1,0.2c0.1,0.1,0.2-0.2,0-0.2c-0.2,0-0.5,0.4-0.6,0.5c-0.4,0.3-0.7,0.6-1.1,0.8
					c-1,0.8-1.9,1.5-2.9,2.3c-1.3,1-2.6,2.1-4,3.1c0.2,0.1,0.3,0.1,0.4,0.2c0.1-4.8,0.2-9.6,0.3-14.4c0.2-7.6,0.3-15.3,0.5-23
					c0-1.8,0.1-3.5,0.1-5.3C51.2,0.1,50.7,0.1,50.7,0.5z"/>
			</g>
		</g>
		<g>
			<polygon class="st0" points="99.6,50.5 63.7,58.2 56.9,50.2 			"/>
			<g>
				<path class="st0" d="M99.5,50.3c-6,1.3-12,2.6-18,3.8c-4.1,0.9-8.3,1.8-12.4,2.7c-1.3,0.3-2.7,0.6-4,0.9
					c-0.4,0.1-0.8,0.2-1.1,0.2c-0.1,0-0.2,0-0.3,0.1c-0.2,0.2,0-0.3,0.1,0.1c-0.2-0.5-0.8-0.9-1.1-1.3c-0.8-0.9-1.5-1.8-2.3-2.7
					c-1.1-1.3-2.3-2.7-3.4-4c-0.1,0.2-0.1,0.3-0.2,0.4c4.8,0,9.6,0.1,14.4,0.1c7.7,0.1,15.3,0.1,23,0.2c1.8,0,3.5,0,5.3,0
					C99.9,50.8,99.9,50.3,99.5,50.3c-4.7-0.1-9.5-0.1-14.4-0.1c-7.7-0.1-15.3-0.1-23-0.2c-1.8,0-3.5,0-5.3,0c-0.2,0-0.3,0.3-0.2,0.4
					c2.3,2.7,4.5,5.3,6.8,8c0.1,0.1,0.2,0.1,0.3,0.1c4.1-0.9,8.1-1.7,12.2-2.6c6.4-1.4,12.9-2.7,19.3-4.1c1.5-0.3,3-0.6,4.4-1
					C100,50.7,99.9,50.2,99.5,50.3z"/>
			</g>
		</g>
		<g>
			<polygon class="st0" points="49.5,97.6 50.1,57.1 41.8,63.8 49.2,98.5 			"/>
			<g>
				<path class="st0" d="M49.7,97.6c0.1-4.6,0.1-9.1,0.2-13.7c0.1-7.3,0.2-14.6,0.3-21.8c0-1.7,0.1-3.3,0.1-5c0-0.2-0.3-0.3-0.4-0.2
					c-2.8,2.2-5.6,4.5-8.3,6.7c-0.1,0.1-0.1,0.2-0.1,0.3c0.8,3.9,1.7,7.8,2.5,11.7c1.3,6.2,2.7,12.5,4,18.7c0.3,1.4,0.6,2.9,0.9,4.3
					c0.1,0.3,0.4,0.2,0.5,0C49.5,98.3,49.6,98,49.7,97.6c0.1-0.2-0.4-0.4-0.5-0.1c-0.1,0.3-0.2,0.6-0.3,0.9c0.2,0,0.3,0,0.5,0
					c-1.3-5.9-2.5-11.8-3.8-17.8c-0.9-4-1.7-8-2.6-12c-0.3-1.3-0.5-2.5-0.8-3.8c-0.1-0.3-0.1-0.7-0.2-1c0-0.1,0-0.2,0-0.2
					c0,0-0.2,0.2,0,0.1c0.2,0,0.5-0.4,0.6-0.5c0.4-0.3,0.7-0.6,1.1-0.9c0.9-0.7,1.8-1.5,2.8-2.2c1.3-1,2.6-2.1,3.8-3.1
					c-0.2-0.1-0.3-0.1-0.4-0.2c-0.1,4.6-0.1,9.1-0.2,13.7c-0.1,7.3-0.2,14.6-0.3,21.8c0,1.7-0.1,3.3-0.1,5
					C49.2,97.9,49.7,97.9,49.7,97.6z"/>
			</g>
		</g>
		<g>
			<polygon class="st0" points="50.9,49.9 56.9,50.3 79.7,20.7 			"/>
			<g>
				<path class="st0" d="M50.9,50.1c1.6,0.1,3.2,0.2,4.8,0.4c0.7,0.1,1.2,0.3,1.6-0.3c1.4-1.8,2.8-3.7,4.2-5.5
					c4.9-6.3,9.7-12.6,14.6-18.9c1.3-1.6,2.5-3.3,3.8-4.9c0.2-0.2-0.2-0.5-0.4-0.3c-3.2,3.3-6.5,6.6-9.8,9.9
					c-5.2,5.2-10.4,10.5-15.5,15.7c-1.2,1.2-2.4,2.4-3.6,3.6c-0.2,0.2,0.1,0.6,0.4,0.4c3.2-3.3,6.5-6.6,9.8-9.9
					C66,35,71.2,29.7,76.3,24.5c1.2-1.2,2.4-2.4,3.6-3.6c-0.1-0.1-0.3-0.2-0.4-0.3c-3.3,4.2-6.5,8.5-9.8,12.7
					c-4.1,5.4-8.3,10.8-12.4,16.2c-0.1,0.2-0.5,0.5-0.5,0.7c-0.1,0.2-0.1-0.1,0.2-0.1c-0.2-0.1-0.5,0-0.7-0.1
					c-1.8-0.1-3.5-0.3-5.3-0.4C50.5,49.6,50.5,50.1,50.9,50.1z"/>
			</g>
		</g>
		<g>
			<polygon class="st0" points="43.1,49.7 36.9,41.5 1.5,49.2 			"/>
			<g>
				<path class="st0" d="M43.3,49.6c-2.1-2.7-4.1-5.5-6.2-8.2c-0.1-0.1-0.2-0.1-0.3-0.1c-4,0.9-8,1.8-12,2.6
					c-6.3,1.4-12.7,2.8-19,4.2c-1.5,0.3-2.9,0.6-4.4,1c-0.3,0.1-0.2,0.5,0.1,0.5c4.7,0.1,9.4,0.1,14.1,0.2
					c7.5,0.1,14.9,0.2,22.4,0.2c1.7,0,3.4,0,5.1,0.1c0.3,0,0.3-0.5,0-0.5c-4.7-0.1-9.4-0.1-14.1-0.2c-7.5-0.1-14.9-0.2-22.4-0.2
					c-1.7,0-3.4,0-5.1-0.1c0,0.2,0.1,0.3,0.1,0.5c4-0.9,8-1.8,12-2.6c6.3-1.4,12.7-2.8,19-4.2c1.5-0.3,2.9-0.6,4.4-1
					c-0.1,0-0.2-0.1-0.3-0.1c2.1,2.7,4.1,5.5,6.2,8.2C43,50.1,43.5,49.8,43.3,49.6z"/>
			</g>
		</g>
		<g>
			<polygon class="st0" points="50.4,49.8 80,80.6 50.6,56.9 			"/>
			<g>
				<path class="st0" d="M50.2,50c3.3,3.5,6.7,6.9,10,10.4c5.3,5.5,10.6,11.1,15.9,16.6c1.2,1.3,2.4,2.5,3.6,3.8
					c0.1-0.1,0.2-0.2,0.4-0.4c-4.4-3.5-8.7-7-13.1-10.6c-5.3-4.3-10.6-8.5-15.9-12.8c-0.2-0.1-0.3-0.2-0.5-0.4
					c-0.1-0.1,0.1,0.3,0.1,0.1c0-0.1,0-0.2,0-0.3c0-0.4,0-0.8,0-1.3c-0.1-1.8-0.1-3.6-0.2-5.4c0-0.3-0.5-0.3-0.5,0
					c0.1,1.6,0.1,3.2,0.2,4.8c0,0.7-0.1,1.5,0.1,2.2c0.1,0.2,0.1,0.2,0.2,0.4c0.5,0.5,1.2,1,1.7,1.4c1.1,0.9,2.3,1.8,3.4,2.7
					c6.4,5.1,12.7,10.3,19.1,15.4c1.7,1.4,3.3,2.7,5,4c0.3,0.2,0.6-0.1,0.4-0.4c-3.3-3.5-6.7-6.9-10-10.4
					C64.9,64.5,59.5,59,54.2,53.4c-1.2-1.3-2.4-2.5-3.6-3.8C50.4,49.4,50,49.8,50.2,50z"/>
			</g>
		</g>
		<g>
			<polygon class="st0" points="49.8,49.4 49.8,41.7 23.4,21.7 			"/>
			<g>
				<path class="st0" d="M50.1,49.4c0-1.4,0-2.7,0-4.1c0-0.9,0-1.8,0-2.7c0-0.3,0.1-0.8-0.1-1.1c-0.2-0.3-0.8-0.6-1.1-0.8
					C48,40,47,39.3,46.1,38.6c-5.9-4.5-11.8-8.9-17.7-13.4c-1.6-1.2-3.2-2.4-4.8-3.6c-0.2-0.2-0.5,0.2-0.3,0.4c3,3.1,6,6.2,9,9.4
					c4.7,5,9.5,9.9,14.2,14.9c1.1,1.1,2.2,2.3,3.3,3.4c0.2,0.2,0.6-0.1,0.4-0.4c-3-3.1-6-6.2-9-9.4c-4.7-5-9.5-9.9-14.2-14.9
					c-1.1-1.1-2.2-2.3-3.3-3.4c-0.1,0.1-0.2,0.3-0.3,0.4c4.1,3.1,8.3,6.3,12.4,9.4c3,2.3,6,4.5,9,6.8c1.1,0.8,2.1,1.6,3.2,2.4
					c0.5,0.4,1.1,1,1.7,1.3c0.1,0,0.1,0.1,0.1,0.1c-0.4-0.3-0.1-0.3-0.1-0.1c0,0.1,0,0.2,0,0.3c0,0.9,0,1.7,0,2.6c0,1.6,0,3.2,0,4.8
					C49.6,49.7,50.1,49.7,50.1,49.4z"/>
			</g>
		</g>
		<g>
			<polyline class="st0" points="50.4,50 20.3,80.3 20.3,80.3 43.3,50 			"/>
			<g>
				<path class="st0" d="M50.2,49.8c-3.4,3.4-6.8,6.8-10.2,10.2c-5.4,5.4-10.8,10.9-16.2,16.3c-1.2,1.2-2.5,2.5-3.7,3.7
					c0.1,0.1,0.3,0.2,0.4,0.3c2.6-3.4,5.2-6.8,7.7-10.2c4.1-5.4,8.2-10.9,12.3-16.3c1-1.3,1.9-2.5,2.8-3.7c0.2-0.3-0.2-0.5-0.4-0.3
					c-2.6,3.4-5.2,6.8-7.7,10.2C31.2,65.5,27.1,71,23,76.4c-1,1.3-1.9,2.5-2.8,3.7c-0.2,0.2,0.2,0.5,0.4,0.3
					c3.4-3.4,6.8-6.8,10.2-10.2c5.4-5.4,10.8-10.9,16.2-16.3c1.2-1.2,2.5-2.5,3.7-3.7C50.8,49.9,50.5,49.6,50.2,49.8L50.2,49.8z"/>
			</g>
		</g>
		<g>
			<polygon class="st0" points="77.6,77.1 76.9,78.1 80,80.6 			"/>
			<g>
				<path class="st0" d="M77.4,77c-0.2,0.3-0.5,0.7-0.7,1c-0.1,0.1-0.1,0.2,0,0.3c1,0.8,2.1,1.7,3.1,2.5c0.2,0.2,0.6-0.1,0.4-0.3
					c-0.8-1.2-1.6-2.3-2.4-3.5c-0.2-0.3-0.6,0-0.4,0.3c0.8,1.2,1.6,2.3,2.4,3.5c0.1-0.1,0.3-0.2,0.4-0.3c-1-0.8-2.1-1.7-3.1-2.5
					c0,0.1,0,0.2,0,0.3c0.2-0.3,0.5-0.7,0.7-1C78,76.9,77.6,76.7,77.4,77z"/>
			</g>
		</g>
	</g>
</g>
</svg>
