<?xml version="1.0" encoding="utf-8"?>
<!-- Generator: Adobe Illustrator 16.0.0, SVG Export Plug-In . SVG Version: 6.00 Build 0)  -->
<!DOCTYPE svg PUBLIC "-//W3C//DTD SVG 1.1//EN" "http://www.w3.org/Graphics/SVG/1.1/DTD/svg11.dtd">
<svg version="1.1" id="Layer_4" xmlns="http://www.w3.org/2000/svg" xmlns:xlink="http://www.w3.org/1999/xlink" x="0px" y="0px"
	  viewBox="0 0 100 100" enable-background="new 0 0 100 100" xml:space="preserve">
<g>
	<g>
		<line fill-opacity="0.0" stroke="#FFFFFF" stroke-miterlimit="10" x1="22.5" y1="18" x2="22.5" y2="32"/>
		<polyline fill-opacity="0.0" stroke="#FFFFFF" stroke-miterlimit="10" points="35.151,10.662 22.865,17.977 10.58,10.662 		"/>
		<polygon fill-opacity="0.0" stroke="#FFFFFF" stroke-miterlimit="10" points="34.5,17.553 34.5,10.662 22.5,3.557 10.5,10.662
			10.5,24.874 23.072,31.979 29.5,28.426 29.5,21.105 		"/>
		<line fill-opacity="0.0" stroke="#FFFFFF" stroke-miterlimit="10" x1="29.5" y1="21" x2="29.5" y2="29"/>
	</g>
	<g>
		<polyline fill-opacity="0.0" stroke="#FFFFFF" stroke-miterlimit="10" points="90.438,42.606 78.152,49.921 65.866,42.606 		"/>
		<line fill-opacity="0.0" stroke="#FFFFFF" stroke-miterlimit="10" x1="78.5" y1="50" x2="78.5" y2="64"/>
		<polygon fill-opacity="0.0" stroke="#FFFFFF" stroke-miterlimit="10" points="78,35.5 66.5,42.606 66.5,49.496 71.5,53.049 71.5,60.37
			77.43,63.921 89.5,56.816 89.5,42.606 		"/>
	</g>
	<g>
		<polygon fill-opacity="0.0" stroke="#FFFFFF" stroke-miterlimit="10" points="66.5,49.306 66.5,41.992 66.5,41.935 66.5,41.992
			71.5,38.438 71.5,31.549 60.5,38.863 60.5,45.943 66.413,49.404 66.5,49.313 		"/>
		<polygon fill-opacity="0.0" stroke="#FFFFFF" stroke-miterlimit="10" points="60.5,38.863 47.5,31.549 47.5,45.759 54.158,49.404
			60.5,45.943 		"/>
		<polygon fill-opacity="0.0" stroke="#FFFFFF" stroke-miterlimit="10" points="72.009,31.549 59.724,24.442 47.438,31.549 59.724,38.863
					"/>
		<polygon fill-opacity="0.0" stroke="#FFFFFF" stroke-miterlimit="10" points="47.5,53.049 47.5,59.938 53.5,63.493 53.5,70.813
			60.5,74.365 60.5,60.364 		"/>
		<polyline fill-opacity="0.0" stroke="#FFFFFF" stroke-miterlimit="10" points="53.739,49.404 47.438,53.049 59.724,60.364 72.009,53.049
			65.707,49.467 		"/>
		<polygon fill-opacity="0.0" stroke="#FFFFFF" stroke-miterlimit="10" points="60.5,74.365 71.5,67.26 71.5,53.049 60.5,60.364 		"/>
		<line fill-opacity="0.0" stroke="#FFFFFF" stroke-miterlimit="10" x1="59.724" y1="45.943" x2="53.739" y2="49.404"/>
		<line fill-opacity="0.0" stroke="#FFFFFF" stroke-miterlimit="10" x1="65.707" y1="49.467" x2="59.724" y2="45.943"/>
	</g>
	<g>
		<polyline fill-opacity="0.0" stroke="#FFFFFF" stroke-miterlimit="10" points="35.151,74.549 22.865,81.864 10.58,74.549 		"/>
		<line fill-opacity="0.0" stroke="#FFFFFF" stroke-miterlimit="10" x1="22.5" y1="82" x2="22.5" y2="96"/>
		<polygon fill-opacity="0.0" stroke="#FFFFFF" stroke-miterlimit="10" points="22.5,74.493 22.5,74.365 16.659,70.903 10.5,74.549
			10.5,88.76 22.5,95.866 34.5,88.76 34.5,74.549 28.341,70.903 22.5,74.365 		"/>
		<line fill-opacity="0.0" stroke="#FFFFFF" stroke-miterlimit="10" x1="22.865" y1="74.365" x2="28.849" y2="71.051"/>
		<line fill-opacity="0.0" stroke="#FFFFFF" stroke-miterlimit="10" x1="16.881" y1="71.051" x2="22.865" y2="74.365"/>
	</g>
	<g>
		<polygon fill-opacity="0.0" stroke="#FFFFFF" stroke-miterlimit="10" points="40.968,70.807 53.417,63.493 40.887,56.386 34.5,59.938
			34.5,67.149 		"/>
		<polygon fill-opacity="0.0" stroke="#FFFFFF" stroke-miterlimit="10" points="40.5,70.807 40.5,84.808 53.5,77.703 53.5,63.493 		"/>
		<polyline fill-opacity="0.0" stroke="#FFFFFF" stroke-miterlimit="10" points="34.5,73 34.5,81.256 40.5,84.808 40.5,70.807 34.5,67.149
			34.5,67.26 28.729,70.129 		"/>
		<polygon fill-opacity="0.0" stroke="#FFFFFF" stroke-miterlimit="10" points="35.151,53.049 28.849,49.404 22.865,52.865 28.666,49.55
			22.5,52.865 22.5,52.992 22.5,52.865 16.699,49.55 22.774,52.865 16.835,49.404 10.556,53.049 22.854,60.364 		"/>
		<polyline fill-opacity="0.0" stroke="#FFFFFF" stroke-miterlimit="10" points="34.5,60 34.5,53.049 22.5,60.364 22.5,74.365
			29.198,70.598 28.592,70.507 		"/>
		<polygon fill-opacity="0.0" stroke="#FFFFFF" stroke-miterlimit="10" points="10.5,53.049 10.5,67.26 22.5,74.365 22.5,60.364 		"/>
		<polyline fill-opacity="0.0" stroke="#FFFFFF" stroke-miterlimit="10" points="28.682,70.319 28.892,70.566 34.5,67.26 34.5,67 		"/>
		<line fill-opacity="0.0" stroke="#FFFFFF" stroke-miterlimit="10" x1="34.5" y1="67" x2="34.5" y2="60"/>
	</g>
	<g>
		<polygon fill-opacity="0.0" stroke="#FFFFFF" stroke-miterlimit="10" points="53.578,21.105 41.294,14 29.008,21.105 41.294,28.42 		"/>
		<polyline fill-opacity="0.0" stroke="#FFFFFF" stroke-miterlimit="10" points="35,39.467 40.5,42.421 40.5,28.42 29.5,21.105 29.5,29
			"/>
		<path fill-opacity="0.0" stroke="#FFFFFF" stroke-miterlimit="10" d="M35.151,31.491"/>
		<polygon fill-opacity="0.0" stroke="#FFFFFF" stroke-miterlimit="10" points="40.5,28.42 40.5,42.421 47.5,38.869 47.5,38.863
			47.5,31.549 47.5,31.491 47.5,31.549 53.5,27.995 53.5,21.105 		"/>
		<polygon fill-opacity="0.0" stroke="#FFFFFF" stroke-miterlimit="10" points="10.5,31.549 10.5,45.759 22.5,52.865 22.5,38.863 		"/>
		<polygon fill-opacity="0.0" stroke="#FFFFFF" stroke-miterlimit="10" points="29.5,35.206 22.5,38.863 22.5,52.865 34.5,45.759
			34.5,38.869 29.5,35.317 		"/>
		<line fill-opacity="0.0" stroke="#FFFFFF" stroke-miterlimit="10" x1="29.5" y1="29" x2="29.5" y2="36"/>
		<path fill-opacity="0.0" stroke="#FFFFFF" stroke-miterlimit="10" d="M35.151,31.549"/>
		<path fill-opacity="0.0" stroke="#FFFFFF" stroke-miterlimit="10" d="M35.151,31.491"/>
		<polyline fill-opacity="0.0" stroke="#FFFFFF" stroke-miterlimit="10" points="29.5,36 29.5,35.317 35.644,39.28 		"/>
	</g>
	<path fill-opacity="0.0" stroke="#FFFFFF" stroke-miterlimit="10" d="M10.58,31.549"/>
	<line fill-opacity="0.0" stroke="#FFFFFF" stroke-miterlimit="10" x1="16.722" y1="27.834" x2="10.58" y2="31.491"/>
</g>
</svg>
