<?xml version="1.0" encoding="utf-8"?>
<!-- Generator: Adobe Illustrator 16.0.0, SVG Export Plug-In . SVG Version: 6.00 Build 0)  -->
<!DOCTYPE svg PUBLIC "-//W3C//DTD SVG 1.1//EN" "http://www.w3.org/Graphics/SVG/1.1/DTD/svg11.dtd">
<svg version="1.1" id="Controller" xmlns="http://www.w3.org/2000/svg" xmlns:xlink="http://www.w3.org/1999/xlink" x="0px" y="0px"
	 viewBox="0 0 100 100" enable-background="new 0 0 100 100" xml:space="preserve">
<g>
	<g>
		<g>
			<g>
				<g>
					<defs>
						<rect id="SVGID_1_" x="51" y="9" width="49" height="73"/>
					</defs>
					<clipPath id="SVGID_2_">
						<use xlink:href="#SVGID_1_"  overflow="visible"/>
					</clipPath>
				</g>
			</g>
			<g>
				<g>
					<defs>
						<rect id="SVGID_3_" x="51" y="9" width="49" height="73"/>
					</defs>
					<clipPath id="SVGID_4_">
						<use xlink:href="#SVGID_3_"  overflow="visible"/>
					</clipPath>
					<path clip-path="url(#SVGID_4_)" fill-opacity="0.0" stroke="#FFFFFF" stroke-miterlimit="10" d="M96.234,52.417
						c-6.466-24.792-3.854-19.388-7.489-27.987c-3.637-8.597-12.706-8.824-15.254-4.81L49.5,20.038v34.804l9.086,0.247
						c-2.22-1.316-3.711-3.729-3.711-6.496c0-4.173,3.386-7.556,7.559-7.556s7.554,3.383,7.554,7.556
						c0,2.912-1.646,5.436-4.061,6.696l0.971,0.026c0,0,7.028-0.734,6.499,3.267c0,0,4.472,20.017,14.576,18.619
						C87.973,77.201,102.697,77.211,96.234,52.417z"/>
				</g>
				<circle fill-opacity="0.0" stroke="#FFFFFF" stroke-miterlimit="10" cx="62.434" cy="48.593" r="7.555"/>
			</g>
			<g>
				<g>
					<defs>
						<rect id="SVGID_5_" x="51" y="9" width="49" height="73"/>
					</defs>
					<clipPath id="SVGID_6_">
						<use xlink:href="#SVGID_5_"  overflow="visible"/>
					</clipPath>
					<path clip-path="url(#SVGID_6_)" fill-opacity="0.0" stroke="#FFFFFF" stroke-miterlimit="10" d="M96.234,52.417
						c-6.466-24.792-3.854-19.388-7.489-27.987c-3.637-8.597-12.706-8.824-15.254-4.81L49.5,20.038v34.804l9.086,0.247
						c-2.22-1.316-3.711-3.729-3.711-6.496c0-4.173,3.386-7.556,7.559-7.556s7.554,3.383,7.554,7.556
						c0,2.912-1.646,5.436-4.061,6.696l0.971,0.026c0,0,7.028-0.734,6.499,3.267c0,0,4.472,20.017,14.576,18.619
						C87.973,77.201,102.697,77.211,96.234,52.417z"/>
				</g>
				<circle fill-opacity="0.0" stroke="#FFFFFF" stroke-miterlimit="10" cx="62.434" cy="48.593" r="7.555"/>
			</g>
		</g>
		<g>
			<g>
				<defs>
					<rect id="SVGID_7_" x="1" y="9" width="49" height="73"/>
				</defs>
				<clipPath id="SVGID_8_">
					<use xlink:href="#SVGID_7_"  overflow="visible"/>
				</clipPath>
				<path clip-path="url(#SVGID_8_)" fill-opacity="0.0" stroke="#FFFFFF" stroke-miterlimit="10" d="M4.768,52.417
					c6.465-24.792,3.851-19.388,7.487-27.987c3.635-8.597,12.705-8.824,15.254-4.81l23.99,0.418v34.804l-9.085,0.247
					c2.219-1.316,3.71-3.729,3.71-6.496c0-4.173-3.384-7.556-7.557-7.556c-4.174,0-7.557,3.383-7.557,7.556
					c0,2.912,1.651,5.436,4.064,6.696l-0.977,0.026c0,0-7.024-0.734-6.494,3.267c0,0-4.474,20.017-14.576,18.619
					C13.029,77.201-1.697,77.211,4.768,52.417z"/>
			</g>
			<circle fill-opacity="0.0" stroke="#FFFFFF" stroke-miterlimit="10" cx="38.567" cy="48.593" r="7.556"/>
		</g>
		<line fill-opacity="0.0" stroke="#FFFFFF" stroke-miterlimit="10" x1="45.218" y1="54.95" x2="55.031" y2="55.004"/>
		<path fill-opacity="0.0" stroke="#FFFFFF" stroke-miterlimit="10" d="M49.015,20.08c0.384-0.078,2.896,0,2.896,0"/>
	</g>
	<g>
		<circle fill-opacity="0.0" stroke="#FFFFFF" stroke-miterlimit="10" cx="21.755" cy="33.721" r="10.092"/>
		<g>
			<path fill-opacity="0.0" stroke="#FFFFFF" stroke-miterlimit="10" d="M21.676,32.882l2.287-1.934l0.237-3.234
				c0,0-0.237-1.222-2.524-1.261c-2.288-0.041-2.367,1.301-2.367,1.301l0.197,3.195L21.676,32.882z"/>
			<path fill-opacity="0.0" stroke="#FFFFFF" stroke-miterlimit="10" d="M21.676,35.479l2.287,1.934l0.237,3.233
				c0,0-0.237,1.223-2.524,1.262c-2.288,0.04-2.367-1.302-2.367-1.302l0.197-3.194L21.676,35.479z"/>
			<path fill-opacity="0.0" stroke="#FFFFFF" stroke-miterlimit="10" d="M20.456,34.26l-1.934-2.288l-3.234-0.238
				c0,0-1.221,0.238-1.261,2.525c-0.039,2.287,1.301,2.366,1.301,2.366l3.194-0.197L20.456,34.26z"/>
			<path fill-opacity="0.0" stroke="#FFFFFF" stroke-miterlimit="10" d="M23.055,34.26l1.933-2.288l3.233-0.238
				c0,0,1.222,0.238,1.262,2.525c0.041,2.287-1.301,2.366-1.301,2.366l-3.194-0.197L23.055,34.26z"/>
		</g>
	</g>
	<circle fill-opacity="0.0" stroke="#FFFFFF" stroke-miterlimit="10" cx="79.708" cy="34.139" r="10.09"/>
	<circle fill-opacity="0.0" stroke="#FFFFFF" stroke-miterlimit="10" cx="79.708" cy="27.593" r="2.952"/>
	<circle fill-opacity="0.0" stroke="#FFFFFF" stroke-miterlimit="10" cx="79.708" cy="40.87" r="2.952"/>
	<circle fill-opacity="0.0" stroke="#FFFFFF" stroke-miterlimit="10" cx="73.069" cy="34.231" r="2.951"/>
	<circle fill-opacity="0.0" stroke="#FFFFFF" stroke-miterlimit="10" cx="86.347" cy="34.231" r="2.951"/>
	<circle fill-opacity="0.0" stroke="#FFFFFF" stroke-miterlimit="10" cx="86.346" cy="34.231" r="1.615"/>
	<rect x="71.5" y="32.5" fill-opacity="0.0" stroke="#FFFFFF" stroke-miterlimit="10" width="3" height="3"/>
	<g>
		<line fill-opacity="0.0" stroke="#FFFFFF" stroke-width="1.5" stroke-miterlimit="10" x1="81.798" y1="42.896" x2="77.56" y2="38.658"/>
		<line fill-opacity="0.0" stroke="#FFFFFF" stroke-width="1.5" stroke-miterlimit="10" x1="81.798" y1="38.658" x2="77.56" y2="42.896"/>
	</g>
	<path fill="#FFFFFF" stroke="#FFFFFF" stroke-miterlimit="10" d="M79.708,24.642"/>
	<polygon fill-opacity="0.0" stroke="#FFFFFF" stroke-miterlimit="10" points="79.631,25.878 78.033,28.5 81.181,28.5 	"/>
	<rect x="36.5" y="22.5" fill-opacity="0.0" stroke="#FFFFFF" stroke-miterlimit="10" width="28" height="15"/>
	<path fill-opacity="0.0" stroke="#FFFFFF" stroke-miterlimit="10" d="M34.5,27.57c0,0.514-0.417,0.93-0.93,0.93h-0.14
		c-0.514,0-0.93-0.416-0.93-0.93V25.43c0-0.514,0.417-0.93,0.93-0.93h0.14c0.514,0,0.93,0.416,0.93,0.93V27.57z"/>
	<path fill-opacity="0.0" stroke="#FFFFFF" stroke-miterlimit="10" d="M68.5,27.57c0,0.514-0.415,0.93-0.928,0.93h-0.145
		c-0.513,0-0.928-0.416-0.928-0.93V25.43c0-0.514,0.415-0.93,0.928-0.93h0.145c0.513,0,0.928,0.416,0.928,0.93V27.57z"/>
	<circle fill-opacity="0.0" stroke="#FFFFFF" stroke-miterlimit="10" cx="50.167" cy="43.083" r="2.25"/>
</g>
</svg>
