<?xml version="1.0" encoding="utf-8"?>
<!-- Generator: Adobe Illustrator 16.0.0, SVG Export Plug-In . SVG Version: 6.00 Build 0)  -->
<!DOCTYPE svg PUBLIC "-//W3C//DTD SVG 1.1//EN" "http://www.w3.org/Graphics/SVG/1.1/DTD/svg11.dtd">
<svg version="1.1" id="Mobile" xmlns="http://www.w3.org/2000/svg" xmlns:xlink="http://www.w3.org/1999/xlink" x="25" y="25" width="50" height="50"
	  viewBox="0 0 100 100" enable-background="new 0 0 100 100" xml:space="preserve">
<g>
	<g>
		<path d="M55.217,7c0,0.426,0.345,1,0.771,1h3.317c0.426,0,0.771-0.574,0.771-1s-0.345-1-0.771-1h-3.317
			C55.562,6,55.217,6.574,55.217,7C55.217,7,55.217,6.574,55.217,7z"/>
		<path fill-opacity="0.0" stroke="#FFFFFF" stroke-miterlimit="10" d="M55.217,7c0,0.426,0.345,0.5,0.771,0.5h3.317
			c0.426,0,0.771-0.074,0.771-0.5s-0.345-0.5-0.771-0.5h-3.317C55.562,6.5,55.217,6.574,55.217,7C55.217,7,55.217,6.574,55.217,7z"
			/>
	</g>
	<g>
		<path d="M39.806,7c0,0.426,0.345,1,0.77,1h12.168c0.426,0,0.771-0.574,0.771-1s-0.345-1-0.771-1H40.576
			C40.151,6,39.806,6.574,39.806,7C39.806,7,39.806,6.574,39.806,7z"/>
		<path fill-opacity="0.0" stroke="#FFFFFF" stroke-miterlimit="10" d="M39.806,7c0,0.426,0.345,0.5,0.77,0.5h12.168
			c0.426,0,0.771-0.074,0.771-0.5s-0.345-0.5-0.771-0.5H40.576C40.151,6.5,39.806,6.574,39.806,7C39.806,7,39.806,6.574,39.806,7z"
			/>
	</g>
	<circle fill-opacity="0.0" stroke="#FFFFFF" stroke-miterlimit="10" cx="50.458" cy="94.228" r="3.206"/>
	<g>
		<path fill-opacity="0.0" stroke="#FFFFFF" stroke-miterlimit="10" d="M77.5,11.5c0-6.075-4.925-11-11-11h-32c-6.075,0-11,4.925-11,11v77
			c0,6.075,4.925,11,11,11h32c6.075,0,11-4.925,11-11V11.5z"/>
	</g>
	<rect x="27.5" y="12.5" fill-opacity="0.0" stroke="#FFFFFF" stroke-miterlimit="10" width="46" height="76"/>
	<g>
		<path fill-opacity="0.0" stroke="#FFFFFF" stroke-miterlimit="10" d="M42.5,20.5c0-1.657-1.343-3-3-3h-5c-1.657,0-3,1.343-3,3v5
			c0,1.657,1.343,3,3,3h5c1.657,0,3-1.343,3-3V20.5z"/>
	</g>
	<g>
		<path fill-opacity="0.0" stroke="#FFFFFF" stroke-miterlimit="10" d="M70.5,20.5c0-1.657-1.343-3-3-3h-5c-1.657,0-3,1.343-3,3v5
			c0,1.657,1.343,3,3,3h5c1.657,0,3-1.343,3-3V20.5z"/>
	</g>
	<g>
		<path fill-opacity="0.0" stroke="#FFFFFF" stroke-miterlimit="10" d="M56.5,20.5c0-1.657-1.343-3-3-3h-5c-1.657,0-3,1.343-3,3v5
			c0,1.657,1.343,3,3,3h5c1.657,0,3-1.343,3-3V20.5z"/>
	</g>
	<g>
		<path fill-opacity="0.0" stroke="#FFFFFF" stroke-miterlimit="10" d="M42.5,33.5c0-1.657-1.343-3-3-3h-5c-1.657,0-3,1.343-3,3v5
			c0,1.657,1.343,3,3,3h5c1.657,0,3-1.343,3-3V33.5z"/>
	</g>
	<g>
		<path fill-opacity="0.0" stroke="#FFFFFF" stroke-miterlimit="10" d="M70.5,33.5c0-1.657-1.343-3-3-3h-5c-1.657,0-3,1.343-3,3v5
			c0,1.657,1.343,3,3,3h5c1.657,0,3-1.343,3-3V33.5z"/>
	</g>
	<g>
		<path fill-opacity="0.0" stroke="#FFFFFF" stroke-miterlimit="10" d="M56.5,33.5c0-1.657-1.343-3-3-3h-5c-1.657,0-3,1.343-3,3v5
			c0,1.657,1.343,3,3,3h5c1.657,0,3-1.343,3-3V33.5z"/>
	</g>
	<g>
		<path fill-opacity="0.0" stroke="#FFFFFF" stroke-miterlimit="10" d="M42.5,47.5c0-1.657-1.343-3-3-3h-5c-1.657,0-3,1.343-3,3v5
			c0,1.657,1.343,3,3,3h5c1.657,0,3-1.343,3-3V47.5z"/>
	</g>
	<g>
		<path fill-opacity="0.0" stroke="#FFFFFF" stroke-miterlimit="10" d="M70.5,47.5c0-1.657-1.343-3-3-3h-5c-1.657,0-3,1.343-3,3v5
			c0,1.657,1.343,3,3,3h5c1.657,0,3-1.343,3-3V47.5z"/>
	</g>
	<g>
		<path fill-opacity="0.0" stroke="#FFFFFF" stroke-miterlimit="10" d="M56.5,47.5c0-1.657-1.343-3-3-3h-5c-1.657,0-3,1.343-3,3v5
			c0,1.657,1.343,3,3,3h5c1.657,0,3-1.343,3-3V47.5z"/>
	</g>
</g>
</svg>
