<?xml version="1.0" encoding="utf-8"?>
<!-- Generator: Adobe Illustrator 16.0.0, SVG Export Plug-In . SVG Version: 6.00 Build 0)  -->
<!DOCTYPE svg PUBLIC "-//W3C//DTD SVG 1.1//EN" "http://www.w3.org/Graphics/SVG/1.1/DTD/svg11.dtd">
<svg version="1.1" id="Layer_1" xmlns="http://www.w3.org/2000/svg" xmlns:xlink="http://www.w3.org/1999/xlink" x="0px" y="0px"
	  viewBox="0 0 100 100" enable-background="new 0 0 100 100" xml:space="preserve">
<g>
	<path fill-opacity="0.0" stroke="#FFFFFF" stroke-miterlimit="10" d="M98.5,16.597c0,3.26-2.643,5.903-5.903,5.903H7.403
		c-3.26,0-5.903-2.643-5.903-5.903v-0.193c0-3.26,2.643-5.903,5.903-5.903h85.193c3.261,0,5.903,2.643,5.903,5.903V16.597z"/>
	<path fill-opacity="0.0" stroke="#FFFFFF" stroke-miterlimit="10" d="M98.5,87.597c0,3.261-2.643,5.903-5.903,5.903H7.403
		c-3.26,0-5.903-2.643-5.903-5.903v-0.193c0-3.261,2.643-5.903,5.903-5.903h85.193c3.261,0,5.903,2.643,5.903,5.903V87.597z"/>
	<path fill-opacity="0.0" stroke="#FFFFFF" stroke-miterlimit="10" d="M73.525,33.5c0,3.288-1.906,6-4.257,6H8.195
		c-2.35,0-4.256-2.712-4.256-6l0,0c0-3.288,1.906-6,4.256-6h61.073C71.619,27.5,73.525,30.212,73.525,33.5L73.525,33.5z"/>
	<path fill-opacity="0.0" stroke="#FFFFFF" stroke-miterlimit="10" d="M98.5,52.596c0,3.261-2.644,5.904-5.904,5.904H7.404
		c-3.261,0-5.904-2.644-5.904-5.904v-0.191c0-3.261,2.644-5.904,5.904-5.904h85.191c3.261,0,5.904,2.644,5.904,5.904V52.596z"/>
	<path fill-opacity="0.0" stroke="#FFFFFF" stroke-miterlimit="10" d="M72.449,70c0,3.288-1.904,6.5-4.257,6.5H7.12
		c-2.351,0-4.256-3.212-4.256-6.5l0,0c0-3.287,1.906-6.5,4.256-6.5h61.072C70.545,63.5,72.449,66.713,72.449,70L72.449,70z"/>
</g>
</svg>
